<?xml version="1.0" encoding="UTF-8"?>
<svg xmlns="http://www.w3.org/2000/svg" xmlns:xlink="http://www.w3.org/1999/xlink" viewBox="0 0 48 48" width="48px" height="48px">
<g id="surface24325497">
<path style=" stroke:none;fill-rule:nonzero;fill:rgb(60.784316%,34.901962%,71.372551%);fill-opacity:1;" d="M 38 5 L 14 4.996094 C 11.792969 4.996094 9.183594 6.066406 9.015625 11 L 9 11 C 9 11 9 30.824219 9 39 L 9.019531 38.945312 C 9.199219 42.585938 11.566406 43 12.605469 43 L 36 43 C 36.1875 43 36.5 43 37 43 C 39 43 39 41 39 41 L 39 6 C 39 5.445312 38.554688 5 38 5 Z M 38 5 "/>
<path style=" stroke:none;fill-rule:nonzero;fill:rgb(100%,87.843138%,69.803923%);fill-opacity:1;" d="M 36 36 L 12.605469 36 C 11.273438 36 11 37.117188 11 38.5 C 11 39.882812 11.273438 41.003906 12.605469 41.003906 L 36 41 Z M 36 36 "/>
<path style=" stroke:none;fill-rule:nonzero;fill:rgb(87.843138%,72.549021%,56.470591%);fill-opacity:1;" d="M 12.605469 36 C 11.441406 36 11.085938 36.859375 11.015625 38 L 36 38 L 36 36 Z M 12.605469 36 "/>
<path style=" stroke:none;fill-rule:nonzero;fill:rgb(67.058825%,48.235294%,78.039217%);fill-opacity:1;" d="M 14 10.996094 L 35 10.996094 L 35 15.996094 L 14 15.996094 Z M 14 10.996094 "/>
<path style=" stroke:none;fill-rule:nonzero;fill:rgb(43.921569%,40.392157%,58.039218%);fill-opacity:1;" d="M 38 36 L 36 36 L 36 43 C 36.1875 43 36.5 43 37 43 C 39 43 39 41 39 41 L 39 35.003906 C 39 35.554688 38.554688 36 38 36 Z M 38 36 "/>
</g>
</svg>
