<?xml version="1.0" encoding="UTF-8"?>
<svg xmlns="http://www.w3.org/2000/svg" xmlns:xlink="http://www.w3.org/1999/xlink" viewBox="0 0 40 40" width="40px" height="40px">
<g id="surface24699577">
<path style=" stroke:none;fill-rule:nonzero;fill:rgb(100%,81.568629%,100%);fill-opacity:1;" d="M 1 39 L 39 39 L 39 31.878906 C 37.691406 31.613281 36.148438 31 35 31 C 33.542969 31 31.4375 32 30 32 C 28.5625 32 26.457031 31 25 31 C 23.542969 31 21.4375 32 20 32 C 18.5625 32 16.457031 31 15 31 C 13.542969 31 11.4375 32 10 32 C 8.5625 32 6.457031 31 5 31 C 3.851562 31 2.308594 31.613281 1 31.878906 Z M 1 39 "/>
<path style="fill:none;stroke-width:1;stroke-linecap:round;stroke-linejoin:miter;stroke:rgb(62.352943%,35.294119%,62.352943%);stroke-opacity:1;stroke-miterlimit:10;" d="M 8.475 182.366992 C 10.527539 181.881445 12.646289 181.285547 14.765039 180.689648 C 19.554297 179.36543 24.498047 177.975 28.25 177.975 C 32.001953 177.975 36.923633 179.36543 41.712891 180.711719 C 46.789062 182.146289 52.063867 183.625 56.5 183.625 C 60.936133 183.625 66.210938 182.146289 71.287109 180.711719 C 76.076367 179.36543 80.998047 177.975 84.75 177.975 C 88.501953 177.975 93.423633 179.36543 98.212891 180.711719 C 103.289062 182.146289 108.563867 183.625 113 183.625 C 117.436133 183.625 122.710938 182.146289 127.787109 180.711719 C 132.576367 179.36543 137.498047 177.975 141.25 177.975 C 145.001953 177.975 149.923633 179.36543 154.712891 180.711719 C 159.789062 182.146289 165.063867 183.625 169.5 183.625 C 173.936133 183.625 179.210938 182.146289 184.287109 180.711719 C 189.076367 179.36543 193.998047 177.975 197.75 177.975 C 201.501953 177.975 206.445703 179.36543 211.234961 180.689648 C 213.353711 181.285547 215.472461 181.881445 217.525 182.366992 " transform="matrix(0.176991,0,0,0.176991,0,0)"/>
<path style=" stroke:none;fill-rule:nonzero;fill:rgb(78.039217%,67.450982%,78.039217%);fill-opacity:1;" d="M 2.984375 31.5 C 7.226562 28.976562 17.695312 21.230469 19.449219 5.5 L 21.445312 5.5 C 19.519531 23.371094 11.894531 30.566406 10.816406 31.5 Z M 2.984375 31.5 "/>
<path style=" stroke:none;fill-rule:nonzero;fill:rgb(62.352943%,35.294119%,62.352943%);fill-opacity:1;" d="M 20.886719 6 C 18.957031 22.640625 12.015625 29.734375 10.628906 31 L 4.699219 31 C 9.535156 27.742188 18.164062 20.0625 19.894531 6 L 20.886719 6 M 22 5 L 19 5 C 17 25 1 32 1 32 L 11 32 C 11 32 20 25 22 5 Z M 22 5 "/>
<path style=" stroke:none;fill-rule:nonzero;fill:rgb(100%,81.568629%,100%);fill-opacity:1;" d="M 8.9375 19.773438 C 7.230469 16.160156 7.0625 12.773438 8.5 10.355469 C 10.210938 7.480469 14.199219 5.828125 20.09375 5.542969 C 17.429688 7.316406 12.234375 11.605469 8.9375 19.773438 Z M 8.9375 19.773438 "/>
<path style=" stroke:none;fill-rule:nonzero;fill:rgb(62.352943%,35.294119%,62.352943%);fill-opacity:1;" d="M 18.367188 6.175781 C 15.640625 8.289062 11.734375 12.167969 8.933594 18.503906 C 7.734375 15.449219 7.71875 12.648438 8.929688 10.613281 C 10.378906 8.171875 13.609375 6.664062 18.367188 6.175781 M 22 5 C 5.714844 5 5.125 13.875 9 21 C 13.375 9.125 22 5 22 5 Z M 22 5 "/>
<path style=" stroke:none;fill-rule:nonzero;fill:rgb(100%,81.568629%,100%);fill-opacity:1;" d="M 1.570312 11.746094 C 2.074219 7.230469 5.300781 1.5 13 1.5 C 16.695312 1.5 19.863281 3.78125 20.414062 5.5 L 18.574219 5.496094 C 11.816406 5.496094 7.855469 5.785156 1.570312 11.746094 Z M 1.570312 11.746094 "/>
<path style=" stroke:none;fill-rule:nonzero;fill:rgb(62.352943%,35.294119%,62.352943%);fill-opacity:1;" d="M 13 2 C 16.132812 2 18.613281 3.683594 19.570312 4.996094 L 18.574219 4.996094 C 12.261719 4.996094 8.144531 5.269531 2.3125 10.394531 C 3.253906 6.378906 6.414062 2 13 2 M 13 1 C 4 1 1 8.46875 1 13 C 7.675781 6.324219 11.5625 5.996094 18.574219 5.996094 C 19.34375 5.996094 20.148438 6 21 6 C 21 4 17.347656 1 13 1 Z M 13 1 "/>
<path style=" stroke:none;fill-rule:nonzero;fill:rgb(100%,81.568629%,100%);fill-opacity:1;" d="M 28.734375 21.398438 C 28.390625 17.871094 27.058594 9.425781 22.132812 5.550781 C 26.613281 5.820312 29.515625 7.152344 30.769531 9.515625 C 32.78125 13.304688 30.152344 18.882812 28.734375 21.398438 Z M 28.734375 21.398438 "/>
<path style=" stroke:none;fill-rule:nonzero;fill:rgb(62.352943%,35.294119%,62.352943%);fill-opacity:1;" d="M 23.566406 6.183594 C 27.027344 6.613281 29.296875 7.808594 30.328125 9.746094 C 31.917969 12.742188 30.390625 17.007812 29.042969 19.75 C 28.519531 16.007812 27.144531 9.882812 23.566406 6.183594 M 20.355469 5 C 27.816406 8.816406 28.355469 23 28.355469 23 C 28.355469 23 40.539062 5 20.355469 5 Z M 20.355469 5 "/>
<path style=" stroke:none;fill-rule:nonzero;fill:rgb(100%,81.568629%,100%);fill-opacity:1;" d="M 35.480469 13.765625 C 34.714844 12.988281 34.039062 12.285156 33.421875 11.644531 C 28.882812 6.925781 27.578125 5.570312 20.566406 5.503906 C 21.015625 3.734375 23.722656 1.5 27.339844 1.5 C 33.636719 1.5 35.289062 7.902344 35.480469 13.765625 Z M 35.480469 13.765625 "/>
<path style=" stroke:none;fill-rule:nonzero;fill:rgb(62.352943%,35.294119%,62.352943%);fill-opacity:1;" d="M 27.339844 2 C 32.785156 2 34.53125 7.230469 34.910156 12.46875 C 34.511719 12.054688 34.136719 11.667969 33.78125 11.296875 C 29.292969 6.628906 27.890625 5.171875 21.3125 5.015625 C 22.089844 3.648438 24.273438 2 27.339844 2 M 27.339844 1 C 22.992188 1 20 3.964844 20 6 C 28.621094 6 28.59375 7.59375 36 15 C 36 9 34.589844 1 27.339844 1 Z M 27.339844 1 "/>
<path style=" stroke:none;fill-rule:nonzero;fill:rgb(56.078434%,50.588238%,56.078434%);fill-opacity:1;" d="M 14.15625 31 C 4.945312 31 1 31 1 31 L 1 39 L 26 39 C 26 39 20.738281 31 14.15625 31 Z M 14.15625 31 "/>
<path style="fill:none;stroke-width:1;stroke-linecap:round;stroke-linejoin:miter;stroke:rgb(62.352943%,35.294119%,62.352943%);stroke-opacity:1;stroke-miterlimit:10;" d="M 8.475 177.975 L 79.982813 177.975 C 108.475586 177.975 132.907422 206.401563 141.360352 217.525 " transform="matrix(0.176991,0,0,0.176991,0,0)"/>
</g>
</svg>
